<svg xmlns="http://www.w3.org/2000/svg" xmlns:xlink="http://www.w3.org/1999/xlink" fill="none" height="16" viewBox="0 0 22 16" width="22"><clipPath id="clip0_2_413"><path d="m0 0h22v16h-22z"></path></clipPath><clipPath id="clip1_2_413"><rect height="16" rx="2" width="22"></rect></clipPath><g clip-path="url(#clip0_2_413)"><g clip-path="url(#clip1_2_413)"><rect fill="#fff" height="16" rx="2" width="22"></rect><g clip-rule="evenodd" fill-rule="evenodd"><path d="m0 0h9.42857v7.46667h-9.42857z" fill="#1a47b8"></path><path d="m9.42857 0v1.06667h12.57143v-1.06667zm0 2.13333v1.06667h12.57143v-1.06667zm0 2.13334v1.06666h12.57143v-1.06666zm0 2.13333v1.06667h12.57143v-1.06667zm-9.42857 2.13333v1.06667h22v-1.06667zm0 2.13337v1.0666h22v-1.0666zm0 2.1333v1.0667h22v-1.0667zm0 2.1333v1.0667h22v-1.0667z" fill="#f93939"></path><path d="m1.04761 1.06665v1.06667h1.04762v-1.06667zm2.09524 0v1.06667h1.04761v-1.06667zm2.09523 0v1.06667h1.04762v-1.06667zm2.09524 0v1.06667h1.04762v-1.06667zm-1.04762 1.06667v1.06666h1.04762v-1.06666zm-2.09524 0v1.06666h1.04762v-1.06666zm-2.09523 0v1.06666h1.04762v-1.06666zm-1.04762 1.06666v1.06667h1.04762v-1.06667zm2.09524 0v1.06667h1.04761v-1.06667zm2.09523 0v1.06667h1.04762v-1.06667zm2.09524 0v1.06667h1.04762v-1.06667zm-6.28571 2.13334v1.06666h1.04762v-1.06666zm2.09524 0v1.06666h1.04761v-1.06666zm2.09523 0v1.06666h1.04762v-1.06666zm2.09524 0v1.06666h1.04762v-1.06666zm-1.04762-1.06667v1.06667h1.04762v-1.06667zm-2.09524 0v1.06667h1.04762v-1.06667zm-2.09523 0v1.06667h1.04762v-1.06667z" fill="#fff"></path></g></g></g></svg>