<svg xmlns="http://www.w3.org/2000/svg" xmlns:sketch="http://www.bohemiancoding.com/sketch/ns" height="180" viewBox="0 0 180 180" width="180"><g id="Page-1" fill="none" fill-rule="evenodd"><g id="circle_egypt"><path id="Rectangle-3-copy-2" d="m174.873467 120h-169.75245717c12.35471617 34.955772 45.69086397 60 84.87622837 60 39.1853648 0 72.5215118-25.044228 84.8762248-60z" fill="#262626"></path><path id="Rectangle-3-copy-3" d="m5.12100983 120h169.75245717c3.316438-9.383367 5.121009-19.480937 5.121009-30s-1.804571-20.6166327-5.121013-30.0000004l-169.75245317.0000004c-3.31643875 9.3833673-5.12100983 19.480937-5.12100983 30s1.80457108 20.616633 5.12101363 30z" fill="#fff"></path><path id="Rectangle-3" d="m5.12100983 60h169.75245717c-12.354717-34.9557725-45.690864-60-84.8762288-60-39.1853644 0-72.5215122 25.0442275-84.87622457 59.9999996z" fill="#ca4638"></path><g id="egypt" transform="translate(70 62)"><path id="_x32_1445608" d="m34.9288075 53.6738717c1.4079136-.2405744 1.4079136-.9237517 1.4079136-1.8083135 1.4079136-.4419307.6823121-2.0086334 1.6632789-2.0086334-.9809668.241594-1.1939645-1.5670668-2.3883155-1.325456 0-1.5677391-1.6636356-1.7684232-3.0712816-1.3271648-2.8154407.8845338-7.8060504 1.085554-12.5408191 1.085554-4.7344714-.2010146-9.6827136-.2010146-12.54052183-1.085554-1.4075568-.4412584-3.07038974-.2405771-3.07038974 1.3271648-1.19470776-.2415968-1.40791358 1.5670668-2.38867223 1.325456.98078838 0 .25555561 1.5667027 1.66327891 2.0086334 0 .8845337 0 1.5677391 1.45025148 1.8083135 3.28386313.8841976 8.95755801 1.3261283 14.88605341 1.3261283 5.9294467 0 11.602547-.4419307 14.9292237-1.3261283z" fill="#fff" stroke="#c09300" stroke-width=".5"></path><path id="_x32_1312736" d="m20.7381261 28.6254116 20.2618739 18.3745884-1.4425136-33.3712975c-.2119379-5.05757089-4.7110454-3.89721963-7.9792518-2.0728238-3.3108082 2.0728238-7.0878691 2.0728238-11.0782346.7043029-3.989478 1.3685209-7.7668347 1.3685209-11.07764288-.7043029-3.26791056-1.82428023-7.76653885-2.98483379-7.97895599 2.0728238l-1.44340113 33.3712975 20.7381853-18.3745884z" fill="#fff" stroke="#c09300" stroke-width=".5"></path><path id="_x32_1313880" d="m29 18.0000871-.787518 16.1662541-2.212482 1.8336588.8361251-17.7913901c.5402318-.0001771 1.9174456-.0001771 2.1638749-.2086099z" fill="#c09300"></path><path id="_x32_1313440" d="m23.9324951 44.4443359-.7979836 1.1003274-1.0024314-.7041691-1.451416-7.6089268.96875 7.6089268-1.149743 1.1595058-1.101966-1.1595058.8110861-7.6089268-1.3236594 7.6089268-1.0204656.7041691-.9795344-.9110201 2.8828125-12.6336432h1.2369385z" fill="#c09300"></path><path id="_x32_1313528" d="m4 12-1.48304083 32.9003749-2.51695917 2.0996251 1.52821308-33.8230617c.71890296-.4622808 1.97768014-1.1766747 2.47178692-1.1766747zm3 2.8625422-1.33354358 27.7127846-2.66645642 2.4246732 1.61906817-32c.52420867.4651489 2.09597158 1.6074624 2.38089863 1.8613033zm2 1.5141012-.98474522 22.7885688-2.01525478 1.8347878 1.25421171-26c.49160779.4589587 1.47691492 1.1264292 1.74578829 1.376527zm3 1.3447248-.9999366 19.76372-2.0000634 1.5149118.99993664-22c.50026926.2119924 1.50001586.7213386 2.00006336.7213386zm3 .2787189-.787518 16.1662541-2.212482 1.8336588.8361251-17.7913901c.5402318-.0001771 1.9174456-.0001771 2.1638749-.2086099zm22-6.0000871 1.4830408 32.9003749 2.5169592 2.0996251-1.5282131-33.8230617c-.7189029-.4622808-1.9776801-1.1766747-2.4717869-1.1766747zm-3 2.8625422 1.3335436 27.7127846 2.6664564 2.4246732-1.6190682-32c-.5242086.4651489-2.0959716 1.6074624-2.3808986 1.8613033zm-2 1.5141012.9847452 22.7885688 2.0152548 1.8347878-1.2542117-26c-.4916078.4589587-1.4769149 1.1264292-1.7457883 1.376527zm-3 1.3447248.9999366 19.76372 2.0000634 1.5149118-.9999366-22c-.5002693.2119924-1.5000159.7213386-2.0000634.7213386z" fill="#c09300"></path><g fill="#fff"><path id="_x32_1314408" d="m8 45.8236451 8.1408691 1.1822143 3.5209961-14.6894532-6.0565451-6.3164062zm24.9291992-.0121217-8.407959 1.0546875-3.741455-14.3701171 5.6151885-6.4960938z" stroke="#c09300" stroke-width=".5"></path><path id="_x32_1315816" d="m12.4283166 46.0614856c1.8967045.2235917 4.0047547.4095749 5.6495016.2235917.9266359 0 1.6013729 1.4150272-.2534767 1.6389486-1.6436009.1856665-4.2154539 0-5.6068916-.2239084-1.180474-.1863-3.7520331-.5957217-5.3964862-1.0060754-1.64412986-.6325357-.4631269-1.8609488.46347953-1.6751135 1.43375387.4094191 3.28890617.8194613 5.14405857 1.0425778z" stroke="#c09300" stroke-width=".1"></path><path id="_x32_1315904" d="m28.570214 46.0614856c-1.8980101.2235917-4.0059598.4095749-5.6088729.2235917-.9702136 0-1.6449774 1.4150272.210795 1.6389486 1.644801.1856665 4.2173104 0 5.6079911-.2239084 1.1813584-.1863 3.7534562-.5957217 5.3981103-1.0060754 1.6451537-.6325357.4645302-1.8609488-.4636191-1.6751135-1.4338326.4094191-3.2893081.8194613-5.1444308 1.0425778z" stroke="#c09300" stroke-width=".1"></path><path id="_x32_1315992" d="m7 45.0223259c-1.60239788-.2159599-2.35649839 1.1864841-1.83754503 1.9776741.23536728-.395595 1.31961019-.395595 1.55557873-.79119.2819663-.611096-.23596854-.611096.2819663-1.1864841zm5.8932407 3.9776741c0-.9516833 1.1067593-.8346548 1.1067593-1.7874248 0-.4760228-.3013564-1.2125752-.8549536-1.2125752-.5538181 0-1.1078118.4762039-1.1078118.9524078-.2518057.9529511.8560061 1.09609.8560061 2.0475922zm5.8264597-2c1.6601048 0 1.4956209 2.000264.6898007 3 0-.7271038-1.4095011-.999736-1.4095011-1.4989387 0-.7735774 1.2725657-.7735774.7197004-1.5010613zm15.2802996-1.9776741c1.6020687-.2159599 2.3563156 1.1864841 1.8377626 1.9776741-.2358877-.395595-1.3193738-.395595-1.5548707-.79119-.2828722-.611096.2356907-.611096-.2828722-1.1864841zm-4.8936905 3.9776741c0-.9516833-1.1063095-.8346548-1.1063095-1.7874248 0-.4760228.3015686-1.2125752.8553794-1.2125752.5533653 0 1.1073971.4762039 1.1073971.9524078.2518107.9529511-.856432 1.09609-.856432 2.0475922zm-6.8252945-2c-1.6610296 0-1.496306 2.000264-.6905542 3 0-.7271038 1.4095392-.999736 1.4095392-1.4989387.0002141-.7735774-1.2727903-.7735774-.718985-1.5010613z" stroke="#c09300" stroke-width=".1"></path></g><path id="_x32_1315024" d="m24.7503555 34.7186529.295308.4077032.2430997-2.3846556-1.2887632-1.4483834.232495-.2933171 1.1068626 1.2454004.2429728-2.3834114c.0305269-.2994499.4176696-.861989.4176696-.861989l-.3647827 3.5782906 1.5355026 1.7276901.5178743-1.5203671.3114058.1540092-.701815 2.0603772-1.7135268-1.9257563-.2982612 2.9257563-.6773215-.9272029-1.1677592 2.9272029-.4328965-.0911012 1.7704522 2.4120499.880864-4.0793696 1.8058431 2.1808321.7513501-2.4224112 2.7830708 2.5849607-1.2869933 4.2751993-.349735.044667-1.5187769-2.2643769-.9514099 2.6242989-1.6880218-2.4532141.084369-.518347 1.4806162 2.1946955.9687649-2.6721695 1.7624191 2.6721697 1.1544957-3.9029229-2.257488-1.8819254-.7825874 2.5231229-1.7414245-2.1048435-1.4980523 6.8786853-.3761758-.0720165.6710215-3.1075681-2.6710215-3.6199213.3412853-.2004941.6612215.900843-.0025068.0062839.0084198.0017719zm-.3084705-.4258755-1.1812958-1.6309008-.2605892.2082154 1.2996755 1.7791595-1.2971687 3.2515915zm-7.3157329-.2264524.8738479-1.196233-.2605892-.2082154-1.7850743 2.4644795-.3458923-3.3929869.3915558-.4400521-.232495-.2933171-.2097625.2360169-.1400729-1.3740279c-.0305269-.2994499-.4176696-.861989-.4176696-.861989l.2618828 2.5689071-2.4326027 2.7370736-.5178743-1.5203671-.3114058.1540092.701815 2.0603772 2.6107342-2.9340876.4010538 3.9340876 1.3241058-1.8126027 1.2977385 3.2530197-2.1143193 2.8805317-.880864-4.0793696-1.8058431 2.1808321-.7513501-2.4224112-2.7830708 2.5849607 1.2869933 4.2751993.349735.044667 1.5187769-2.2643769.9514099 2.6242989 1.6880218-2.4532141-.084369-.518347-1.4806162 2.1946955-.9687649-2.6721695-1.7624191 2.6721697-1.1544957-3.9029229 2.257488-1.8819254.7825874 2.5231229 1.7414245-2.1048435 1.4980523 6.8786853.3761758-.0720165-.6710215-3.1075681 2.177553-2.9511445.0521522.1307291.4413163-.0928731-.1829735-.4586567.1829735-.2479761-.3412853-.2004941-.0133449.0181811-1.2040535-3.0181811zm-5.4705571 9.7027238 1.2014011 2.1254924 1.2378935-1.1958159.5479822 1.3012747.3571282-.1054588-.8076739-2.0121645-1.33533 1.378575-1.0665867-2.2609517-1.7904094 2.2609517.3781099.1960156zm17.68881 0-1.2014011 2.1254924-1.2378935-1.1958159-.5479822 1.3012747-.3571282-.1054588.8076739-2.0121645 1.33533 1.378575 1.0665867-2.2609517 1.7904094 2.2609517-.3781099.1960156z" fill="#c09300"></path><path id="_66795168-9" d="m20.9939821 36c9.8309399-7.4765536 8.9879523-18.4287249 8.9879523-18.4287249-.2594016.05129-.5058226.0769365-.7652243.0769365-2.0621723 0-6.9806239-1.1665103-8.128099-2.6482116-1.2291536 1.3411102-6.2553956 2.6482116-8.3045873 2.6482116-.2593986 0-.5187732-.0256405-.7651942-.0769365 0 0-.8559983 10.9518735 8.9750019 18.4287249z" fill="#fff" stroke="#c09300" stroke-width=".2"></path><path id="path3977-4" d="m28.9998349 18.364754c-.0825613.0052479-.1655222.0078718-.2490914.0078718-1.8234475 0-6.0587648-.9493246-7.6913608-2.3726258-1.7100238 1.3147958-6.0152759 2.3726258-7.8091922 2.3726258-.0841421 0-.1672706-.0104361-.2496643-.025792-.0041726.4146996.0170723.8445465.0424545 1.2355115.0949115 1.4612885.3474997 2.9277651.7309658 4.3390201 1.2071396 4.4412936 3.6777487 8.2155731 7.2203292 11.0786346 3.545519-2.8654469 6.0190959-6.6433045 7.2288508-11.087878.3840832-1.410927.6374647-2.8772844.7332871-4.3384237.0250649-.3830038.0461805-.8026233.0433273-1.2089443z" stroke="#c09300" stroke-width=".2"></path><path id="path3816" d="m24 17.8903531c1.733971.5401494 3.6677494.8573977 4.7507435.8573977.0835692 0 .1665301-.0024859.2490914-.0074575h-.000094c.0028532.3849356-.0182624.7824699-.0433273 1.1453156-.0958224 1.3842373-.3492039 2.773418-.7332871 4.1100856-.8314663 2.8939849-2.259941 5.4896005-4.2231265 7.7112754zm-6-.0335663c-1.7582274.5420119-3.6912442.890964-4.7498095.890964-.0841421 0-.1672706-.0098869-.2496643-.0244346-.0041726.3928734.0170723.8000967.0424545 1.1704846.0949115 1.3843786.3474997 2.7736722.7309658 4.1106506.8308944 2.8961213 2.2603955 5.4928572 4.2260535 7.7147616z" fill="#c09300" stroke="#c09300" stroke-width=".916"></path><path id="path4247-1" d="m6.3607413 49.9900529c-.27002137-.0543635-.41182228-.2793744-.34386443-.5456586.08277198-.3243276.3294548-.5098654.56253189-.4230744.14820182.0551836.41951248.3433346.4205793.4466774.0015168.1186272-.14186664.4007869-.20358538.4014366-.02664518.0002823-.06785168.024764-.09162505.0543263-.05056517.062927-.20902059.0934585-.3440161.0662821zm16.9009624.9787006c-.1009962-.0408557-.2618865-.2878217-.2617035-.401768.0010166-.2149199.2918616-.5649855.4721237-.5669838.0890356-.0005551.3328162.1377214.4239867.2412595.1652212.1875643.1292074.4955863-.0783967.6705108-.10215.086069-.4067753.1172659-.5559898.0569538zm.0536733.9913658c-.2147178-.0736011-.2932606-.180136-.3107117-.4214362-.018141-.2514321.0059278-.2905765.2680421-.4354426l.1868062-.1032405.1770459.0800294c.2452253.1108342.3543268.2303136.3629782.3975154.0093005.1800946-.12249.3643797-.3271102.4573329-.1796827.0816247-.190368.082381-.3570505.0252778zm-16.05072369-1.7730253c.07530626-.0700642.0767797-.1415747.00363232-.1751273-.04619202-.0211895-.07323525-.0161684-.16436848.0306947-.09171323.0471158-.10813192.0650842-.10310525.1128221.00568282.0541611.04501444.0725748.1820204.08526.01209798.0009474.04892212-.023021.08184151-.0536431zm1.96940463 1.7692698c-.06323466-.0246757-.21915148-.068039-.34647253-.0963385-.29355357-.0652549-.74885204-.1840017-.87194795-.2274166-.05201137-.0183776-.14652546-.0466997-.21003379-.0630102-.11662555-.0299402-.17654265-.0502524-.36769596-.1245604-.05781151-.0224794-.19960638-.0677321-.31511211-.1005727-.11550295-.0328439-.25049514-.0791075-.29997646-.1028175-.0494869-.0237067-.10803565-.0428917-.13010243-.0426366-.0220612.0001906-.07148108-.0189266-.10979775-.0426559-.03831947-.0237067-.13025881-.0495322-.20430904-.0573645-.15472999-.0163105-.27002629-.0793271-.33560949-.1832362-.05568358-.0882381-.05704076-.157133-.00550133-.2788641.02178194-.0514119.03973249-.1118964.03991122-.1344081.00019827-.0225117.01898938-.0590633.0418325-.0812262.02281519-.0221564.04141083-.0504979.04129354-.0629553-.00021503-.0273564.09711954-.1907681.15463225-.2594885.07545768-.0901566.23163142-.1771093.31994324-.1781364.05189408-.0009689.0975468-.0166334.11995707-.0420907.02490961-.028293.08173255-.0452721.18231487-.0544447l.14612891-.0133714.0570296-.1169381c.03136879-.0643118.05742055-.1483318.05789529-.186705.00055851-.0383797.01527528-.101251.03287118-.1397147.01759311-.0384701.04462785-.1329644.06004835-.2099886.05836444-.2915475.10060745-.4535607.12564551-.4819184.03647917-.0413059.03287119-.0591699-.03007025-.1488259-.03405802-.0485213-.07369837-.0789847-.10233324-.0786521-.06986698.000969-.18439253.0488088-.22041093.0923884-.07179664.0868526-.16674636.1446563-.23898981.145496-.09949601.000969-.2273616-.0811035-.275011-.1769251-.03744819-.0753093-.03730297-.0795952.00628325-.1819153.02840868-.0666824.06549105-.113999.1020149-.1301447.08677312-.0383571.3084379-.0190881.35962547.0312967.03626135.0356732.06319556.0393035.17921792.0241266.07510023-.0098832.14115816-.0263228.14679913-.0367131.00564096-.0104322.05188012-.0262906.10275213-.0353663s.09740717-.0311676.10341396-.0491123c.00603193-.01799.04399674-.039901.08442458-.0488088.04042785-.0088819.08428216-.0309414.09744907-.048925.01318087-.0179576.05082174-.033044.08367059-.0334219.04608835-.0001938.06784796.0163105.09530438.0737815.03138275.0656877.0326003.092424.01030453.2266092-.01390693.0836744-.042472.1911621-.06350274.2388663-.02102796.0476976-.0378559.1273897-.03738675.1770963.00055851.057006-.01443752.1103623-.04052559.1444851-.02275934.0297465-.04115391.0779189-.04087745.1070194.00027926.0291005-.01390693.0692534-.03152517.0892232-.01762103.0199925-.04178224.102094-.05370925.1825095-.01192421.0804059-.03322305.1672584-.04731987.1930064-.01410241.0257415-.031366.0957215-.03837532.1555083-.00700932.0597933-.02630588.1214728-.04286575.1370695-.01655986.0156322-.02981054.061476-.02942796.1019712.00027926.0404855-.01653194.112074-.03753476.1590741-.02102795.0469968-.04426482.1410486-.05163996.2089938-.00737235.0679453-.02541227.1446046-.04006202.1703526-.01466092.0257415-.03298289.0992194-.04072665.1632599-.00773538.0640372-.02767424.1404833-.04429553.1698777-.02725536.0481886-.02602663.0598224.0123431.1183431.06210088.0947139.24402199.1627819.42929976.1606276.14417692-.0009689.15204076-.0046509.20370585-.0781547.03119845-.0443613.05955686-.1227808.06760501-.1869504.00762368-.0607946.0270878-.1394143.04324554-.1747031.0161689-.035292.02888062-.1235754.02826626-.1961748-.00111702-.1229972-.00625533-.1365979-.07603015-.1991236-.06928334-.0620703-.07305888-.0717564-.05024369-.12894.02340163-.0586274.11860548-.109093.2084532-.110485.01859843-.0001873.05611085-.0202509.08335782-.0444033.02725536-.0241266.06992004-.0512408.09483244-.0602228.02490961-.0089789.08092551-.0533369.12446985-.0985574.09150929-.09504.14799713-.0972654.19426701-.0076869.02885828.0558949.02855668.0733811-.00298804.1744447-.01929657.0617796-.03458861.1585864-.03399659.215124.00055851.0565409-.01186836.11948-.02767424.1398536-.01580587.02038-.03805975.0842461-.04945338.1419335-.01139364.0576907-.03475058.1469042-.05190247.1982612-.0171463.0513668-.03119844.1356516-.03121799.1873026.00007261.0516541-.01848673.1351832-.04105338.1856165-.05931949.1326027-.05183544.2135447.02331785.2523281.01736971.0089142.05527308.0311353.08424027.0493029.02896999.0181515.09036993.0329569.13644712.032889.04607719.000323.12459272.0198956.17448175.0443258.04988903.0244496.15032054.0505237.22318393.0579555.12976174.0132422.13368808.0119503.19159733-.0617279.03625576-.0461474.06909903-.1263594.08491886-.2073951.01418619-.0726802.03109233-.1556053.03757106-.1842794.02005056-.0887226-.01329257-.205257-.07864957-.2749884-.11493606-.1226226-.06718613-.2875619.08375157-.2893254.06506099-.000969.24189965-.0825052.28847112-.1333552.126137-.1377251.20482846-.1738343.28174107-.1292824.06088611.0352791.08052899.1316337.04259766.2090003-.01577795.0321688-.04140524.1214114-.05697095.1983355-.01555455.0769209-.04696802.2141293-.069786.304906-.02281519.09078-.05597122.248139-.07367603.3496904-.01770481.1015416-.04974102.2467243-.07119065.3226343-.02144684.0759003-.03881654.1578823-.03858755.1821736.00019827.0242881-.01929657.0965516-.04339354.160576-.07022443.1866145-.17429464.2230822-.3929686.1377089zm-3.07106871-.1138444c-.25705969-.2606224-.21572468-.4507497.16445372-.7563733.16266557-.1307555.26133573-.1159657.44735104.0670574.2862974.2816725.29775718.4599892.0450409.7013725-.12491724.1193026-.17956756.1437679-.32496313.145333-.15210764.0016768-.19519453-.018669-.33190326-.1573728zm1.21646517 1.1445954c-.27899846-.0750858-.43983917-.3817851-.3582076-.6830892.07395001-.2729531.11671926-.2998157.48348301-.3038479.41128222-.0043965.49111279.0706203.49506576.465934.00230159.2225378-.01352182.2741652-.11491252.3770996-.1191647.1209726-.34823021.1861852-.50542865.1438784zm25.7455072-.1049324c-.1030242-.1005593-.1237689-.146017-.1249488-.273986-.0013615-.2185544.105965-.3787978.3385807-.5023281.3094358-.1643629.4355918-.1417644.5521311.0988615.1550196.3200238.1475496.4506646-.0380765.6663503-.102466.1190383-.1216494.1259785-.3562257.1287461-.2303465.0015967-.256696-.0055884-.3714608-.1176332zm-24.83684033.0799564c-.18801547-.0570643-.28546688-.2175376-.28792629-.4741152-.00206673-.196187.01038531-.2274695.13104092-.3348925.07813267-.0695467.20159904-.1291203.29893162-.1442239.13790246-.0214505.1882893-.0077574.29924163.0809537.28444385.2274225.34486465.4523532.18016706.6706665-.17542909.2325589-.34173874.2865143-.62146528.2015937zm6.79323143-.0277627-.0813527-.0665774.0110548-.166038c.0060932-.091315.0254172-.201905.0429598-.2457522.0175252-.0438472.0315801-.1441738.0312-.2229642-.0005803-.0787821.0130568-.1816538.0298131-.2286087.0167707-.0469522.0445179-.222068.0616485-.3891401.0171479-.1670749.0403049-.3264619.0514961-.3542024.0111708-.0277323.0197883-.1012338.0190629-.1633412-.0008704-.0620992.0163355-.171498.0378938-.243094.024953-.082877.0390254-.1984002.038741-.3179687-.0002901-.1032909.009488-.2191036.0216453-.2573669.0121574-.0382632.0218484-.0905787.0215583-.116265-.0005803-.0489017.0743194-.1627428.1072487-.1630571.0105035-.0000993.0546761.0476056.0981408.1060097.0434618.0584041.1307394.1515832.1939489.2070644.2788559.244765.2664578.2233253.1759131.3041535-.0332282.0296571-.0702863.0540197-.0823508.0541383-.0120703.0001158-.0479621.0255069-.0797685.0564462-.0479272.0466075-.0577778.0747507-.0575428.1643505.0001886.0594575-.0147397.143989-.0330715.187839-.0302338.0722661-.0612481.3404975-.072387.626093-.0023212.0600752-.013376.1227286-.0245468.139213-.0111708.0164899-.0244888.1599578-.029581.3188235-.0051066.1588658-.0183085.3019476-.0293198.3179412-.0110257.0159935-.0207458.0648346-.0215872.1085218-.0031917.1616096-.040511.3078211-.0915138.3584214-.0400206.0396917-.0716704.0501509-.1541488.0509396-.0876519.0008272-.1164407-.0094032-.1851428-.065593zm8.131112-.6546202.1145734-.0365652-.0077919-.1180642-.0077626-.1180643-.0914555-.0059052c-.076516-.0049895-.1007618.0046737-.1483921.0584463-.0844954.0955168-.0940391.1643937-.0297147.2144779.0291464.0227053.0536705.0414789.0544936.0417474.0008788.0001863.05307-.015979.1160849-.036079zm-.1670911.6558241c-.0524266-.0594087-.0547272-.0730561-.0306411-.1820895.0143036-.0648309.0274736-.1755822.0292074-.2461176.0013337-.0705409.0162041-.1477506.0321748-.1715821.0159707-.0238369.0286405-.0731794.0281404-.1096581-.0010002-.0514001.0214054-.0838703.0981081-.1442024.0544437-.0428325.0988583-.0874898.0987049-.0992356-.0002034-.0256727.1949626-.1497809.236233-.1501234.016004-.0001315.0492191-.0181654.0738219-.0400625.0246062-.0218916.074989-.0400761.111975-.0403803.036986-.0001616.0968544-.0210422.1330469-.0461121.0618189-.0428078.0656632-.0559181.0635193-.2168339-.0010002-.1034221-.0182046-.2071209-.0425474-.2617486-.0221722-.0497562-.0378662-.1098554-.0349221-.1335553.0026673-.0236999-.0046345-.1362212-.0168043-.2500439-.0197383-.1843691-.0292407-.21282-.0875087-.2606664-.0359658-.0295414-.0793967-.053592-.0965177-.0534496-.0313746.0001617-.1492377-.1127678-.1327235-.1272618.1722368-.151222.4790209-.3890077.5133629-.3979123.0704478-.018275.1763812.0209327.2034113.0752672.0133367.0267412.0319414.1443641.0414538.2613952.0095358.1170366.0288406.2659653.0429442.3309497.0141369.064979.0388498.2689518.0549739.4532579.0161374.1843197.0404868.3661023.0541403.4039674.0136034.0378651.0339219.2063621.0450247.3744316.0111028.1680805.0316413.3398817.0455882.3817745.0479954.1440161.2491262.2303496.3922323.1683544.0237393-.0102745.1307263-.0302482.2377466-.0443586.2489529-.0328292.253354-.0391172.2312717-.3306757-.0153372-.2022687-.0233725-.2304045-.083491-.2912215-.0365859-.0370377-.0945205-.0726314-.1287258-.0791085-.0686274-.012987-.1115515-.0607239-.1124051-.1249959-.0002067-.0454765.1286525-.1517015.2097229-.1723657.027707-.0069867.1021158-.0475725.1653518-.0900269.1415024-.0950244.2346359-.1021453.3224714-.0246589.0563042.0496685.0624757.0754508.0812638.3396352.0145037.2041811.0320081.3027016.0612321.3447313.0297742.042838.0416772.1131597.0437177.2586088.0010003.1361527.0155373.2231301.0428042.2731164.0352622.064672.0358057.080703.0046345.135528-.0194383.0342073-.0426108.0817634-.0513997.1056962-.0203384.0553702-.0581413.0644693-.2881494.0693655-.1031227.0024659-.2323686.0142473-.2872158.0267138-.0548505.0125212-.2009707.0247685-.3247153.0273166-.5280332.0107951-1.2492819.0608471-1.2885918.0894843-.0293074.0213437-.1138921.0290619-.3371851.0308072l-.2980719.0024659-.056681-.06422zm-10.115071-.9994836c.0868225-.0782077.0937881-.1850958.0138085-.2113469-.1013588-.0333092-.1834733-.2168946-.1904915-.4259902-.012625-.375768-.1469575-.3972466-.3967686-.0634138-.071962.096143-.1816891.2257215-.2438405.2879235l-.1130105.1130905.0821759.1085019c.1374581.1814719.2911883.253483.5445808.255091.1607046.0011486.2531383-.0184349.3035809-.063856zm.8951701 1.0511191c-.0310301-.011758-.0564892-.0287657-.0565792-.0378529-.0001744-.0209986-.193891-.1544107-.2237-.154076-.0122649.0001443-.0276913-.0270465-.0342817-.0603957-.0065957-.0333553-.0312018-.1259643-.0547012-.2057991-.04115-.1397915-.0405313-.2470596.0016353-.2758805.0305422-.0208759.019324-.0893579-.0209865-.1279721-.0245843-.0235467-.0887921-.0403825-.1793177-.0470167-.1921548-.0140912-.2141907-.0206609-.2818191-.0842801-.048329-.0454695-.0620356-.0810873-.0767916-.1995854-.0105205-.0845472-.0328753-.1616835-.0539954-.1863938-.0374732-.0438393-.1011251-.0555021-.1198521-.0219503-.0059689.0107142-.0386916.0257264-.0727633.0335057-.0415779.0094556-.0683861.0330269-.0815232.071595-.0107658.0316116-.043314.0918783-.0723353.1339278-.0504331.0730686-.0585525.0765131-.1838475.0779345-.0720955.000921-.1617489-.0119422-.199233-.0283973-.0804275-.0352772-.1692114-.0506363-.3914125-.0677023-.3185864-.0244677-.4660372.002456-.4906214.0893333-.0340991.1205489-.2915765.368643-.4039771.3892426-.0449848.0082889-.1214248.0295946-.1698655.0474649-.0484408.0178673-.0969605.0266781-.1078245.0195558-.0108475-.0071224-.1184512-.026586-.2390883-.0433143-.2278238-.0316055-.3117454-.0747295-.3125903-.1605691-.00054512-.052162.1393969-.1313889.1931306-.1093711.0579582.023731.1535287.0225644.1532889-.0021489-.0001091-.0112976.0495718-.0322901.1104055-.0466699.0608309-.0143675.1214902-.0406342.1348044-.0583541.0133005-.0176831.0508719-.0325141.0834691-.0328856.0483372-.000307.0702994-.0199242.1191245-.1051468.0329243-.0574608.0597271-.1183538.0595608-.1353369-.0001635-.016977.0178522-.0563617.0400352-.0875189.0240119-.0337207.0400107-.0901285.0395338-.1393064-.0005451-.0454572.0130007-.1263235.0298281-.1797166.0288551-.0914393.0279121-.1060063-.0162986-.2512593-.0258107-.0848112-.0584598-.1616067-.0725726-.170657-.0141182-.0090872-.0366855-.0513669-.0501659-.0940304-.0355872-.1126283.0027255-.2133604.1474808-.3876461.0152901-.0184199.0339245-.0659524.0414116-.1056503.0141454-.0749658.0599751-.1165425.1293451-.1173284.0510055-.000921.1473991.1185902.1480205.182983.0002725.0267702.0153992.0711744.033622.0987028.0200599.0303007.0407848.1301334.0524909.2529908.0200053.2099528.0529024.425806.0774621.5083577.0209593.0704039.1323868.1675564.1924492.1677713.028896.000307.1078599.0139684.1754801.0308256.0676175.0168235.1760579.0301779.2409799.0296253.1176745-.000921.1184076-.000921.238854-.1373385.0664482-.0749842.1204136-.147709.1199203-.1616098-.0031344-.0884031-.2662946-.2477503-.4781386-.2895205-.0741452-.0146131-.1261672-.1166223-.1099776-.2156506.0137366-.0839793.1125668-.229923.2087969-.3082872.0367755-.029963.1589089-.0833868.2714103-.1187345l.2045397-.0642792.0565518-.1243618c.1076609-.2367536.334231-.4240868.5154238-.426113.0904656-.000921.1096151.0108064.1819641.1122047.0200326.028121.0577566.0807005.0838044.1168741.0802667.1114801.1255758.2432957.1134254.3299919-.0113655.0811119.0193785.2100572.0499834.2097133.0281056-.0001842.3261906.3264308.3403906.3731252.0071954.0235467.0211773.0427464.0311364.0426389.0252928-.0001873.0620819.1475033.0632512.2540806.0016353.1581101-.0295938.1816261-.247791.1859916-.1043576.002149-.2310017.0176831-.2814375.0345649l-.0916866.0307704-.0048515.1226026c-.0065685.1659815.0304578.2122.1907976.2382334.0667344.0108063.1308469.0297788.1424767.0420864.011638.012372.0451374.0221038.074464.0217968.0293267-.0001811.0713134.0134465.0933029.0304542.0359714.0279368.040256.0594593.0427253.3144886l.0027255.2834419.0666663.0224722c.0366665.012372.0778137.0342824.0914331.0487083.0483808.0512287.1123897.0295025.1381159-.046897.0133551-.0396611.0320195-.0920902.0414689-.1165149.0094575-.0244063.0256199-.1738038.0359087-.3319568.0103025-.1581622.0313354-.3275052.0467428-.3762872.0154264-.0488035.0370916-.2076472.0481818-.3529861.0110929-.1453359.0304086-.2778945.0429379-.2945675.0127282-.0169463.0268191-.1555435.0319268-.3143044.0073316-.2269635.0162441-.2926457.0445078-.3270755.0297082-.036192.0348976-.0869448.0324964-.3176199l-.0028346-.2744561-.0821036-.0764333c-.0547095-.050934-.0822454-.0948715-.0825262-.1316867-.0005451-.079844.0185881-.1028995.120956-.1452407.0502641-.0208144.128037-.052822.1728309-.0711559.044794-.0183585.0906291-.045362.1018583-.0600396.0353146-.046154.1489553-.1276067.1785027-.1279413.01559-.000175.0437174.0177137.0625371.0397163.0439709.0514436.0479856.2614393.0066776.3493328-.0177159.0376625-.0293921.1234285-.0286262.2100571.0008176.0805225-.0126737.1900931-.0297491.2434831-.0178249.0557017-.0402042.2573348-.0525426.4730837-.0118288.2068029-.032382.3978692-.0456744.4245473-.0132733.0267088-.023712.116346-.0231124.1992047.0005451.0828526-.0123739.2353384-.0287543.3388642-.0164076.1035197-.0381927.2774063-.0484489.3864182-.0102479.1090088-.0314852.2324496-.0471842.2743056-.0156991.0418561-.0337993.1469231-.0402233.2334934-.0064322.0865611-.0283455.192239-.048716.234838-.0203597.0426051-.0368627.0950066-.0366556.1164565.0005451.0556618-.1051125.260546-.1347253.2612613-.0136822.0001812-.0338429.0193102-.0448621.0421171-.0110112.0228406-.0479774.0478947-.082131.055674-.0341535.0077978-.087124.0335856-.1177099.0573135-.0655434.0508603-.2559293.0773788-.3366294.0468969zm18.5043525-1.6244527c.1360627-.0632526.1744833-.1407979.1212346-.24468-.0458258-.0894221-.1128012-.1247589-.2218558-.1170568-.1265367.0089368-.2302044.0985673-.2291967.1981705.0008788.064699.015701.087499.0948271.1436368.0517196.0367011.1013681.0675348.1103259.06852.0089344.0009474.0650567-.0208736.1246649-.0485905zm-1.9364514.5410364c.093878-.0866427.1050298-.1116879.1051557-.2361297.0001846-.1906983-.0867773-.4160584-.2152005-.5576613-.1361711-.1501308-.185102-.1474852-.2457178.0134035-.0474106.1257353-.0478383.1361362-.0133869.3238319.019597.1066777.035793.2223574.0359834.2571011.0001816.0837689.1332477.2945432.1862621.2956494.0230242.0005853.0891032-.0427858.1468659-.0960661zm-1.0214832-.0472436c.0077627-.0769936.0068546-.2519358-.0023434-.3887438-.0130061-.1968475-.030368-.2742036-.0830923-.370827-.0793487-.1453913-.120435-.1317692-.2144301.0711235-.0606071.130844-.0694594.1824627-.0717062.4180321-.0035737.3703018.0202707.4176632.2078304.4136373.1491801-.0018755.149353-.0018755.1635952-.1432221zm-1.0554794.474934c.0756403-.0415326.0936906-.0868926.0744656-.1871558-.0290586-.1515095-.2055104-.1962-.2910956-.0737368-.0260707.0372915-.0472934.0771979-.0471762.08868.0001142.0114947-.0142657.033581-.0319938.0491273-.0253969.0222948-.0268616.0384979-.0069424.0767527.0139435.0266842.0362412.0558979.0496281.0649389.0413001.0278842.1880342.0171158.2530938-.0186zm2.0623245-.1123245c.0615884-.0511926.0667176-.1233031.0124495-.1745589-.0637824-.0602211-.1805587-.0594474-.3002232.0022105-.0713957.0366569-.0914057.059539-.0909546.1040369.0001816.0379042.017195.0637547.050214.0770621.0742136.0299368.2889483.0243789.3285202-.0085895zm-3.2532293.7691084c-.0260633-.0241791-.0181626-.1295346.0115938-.152466.0154382-.0119702.0535977-.0291942.0847102-.0382509.0311185-.0090746.0717603-.0291344.0903225-.0446001.0185561-.0154926.0847435-.0355464.1470714-.0446091.2240171-.0325822.4193132-.2078155.4198884-.3767771.0009081-.0465793-.0066596-.0951824-.0152869-.1080212-.0256092-.0383434-.4178299-.0150747-.6301504.0373792-.0503466.0125075-.0751688.0023881-.1368186-.0545614l-.0753142-.0697524-.0107764-.3162098-.0107462-.3162098.0980325-.1067227c.0539125-.0586986.1222008-.1450899.1517483-.1919856.0295444-.0468926.0603512-.0880928.0684486-.0915614.0081127-.0034926.0540973-.0408091.1022129-.0829823.0949509-.0832182.2515668-.1679079.3572275-.1931677.0365976-.0087165.0772969-.0301553.0904587-.0475733.0131073-.0173732.0534706-.0341016.0895899-.0370777.0556502-.0045672.0754231.0092538.1295839.0906719.0351628.0528479.0655003.1250809.0674225.1605318.0015136.0354389.0188588.1029764.037651.150072.0188286.0470987.0412684.1412123.0499622.2091469.0087483.0679404.0272742.1367227.0412775.1528511.0344816.0397255.309127.0584509.3568037.0243284.0266385-.0190746.0384926-.0767375.0456274-.2221021.0055396-.11246.0243681-.2250453.0440927-.2635051.0189496-.0369315.0410656-.0987436.0491358-.1373616.0220978-.1057137.2011898-.3498219.3083097-.42024.0520357-.034209.1073286-.0737733.1228486-.0879315.0155895-.0141792.0510761-.0327404.0790071-.0412957.0676435-.0207164.0836962-.0484867.0830605-.1436541-.0006054-.0821435-.069608-.176302-.2128623-.2902456-.0346481-.0275523-.0631785-.0670986-.0634086-.0878718-.0009081-.0608092.0658121-.176511.170483-.2966605.0535826-.0615196.0977722-.1199884.098196-.1299258.0003027-.0099104.0360557-.0398717.0791888-.0665166.0616528-.0380747.0905676-.0442031.1352143-.0286269.0608082.0211941.0777236.0508718.1338581.2348245.0742274.2432544.0914879.3144486.1096384.4520311.0103224.0777166.0256092.1517288.0341335.164487.0085061.0127463.1088513.0429643.2229486.0671345.1141033.0241792.2293055.0566509.2560105.0721942.026699.0155822.0739671.0352031.1050311.0436987.077642.0212239.1831332.0961883.1835086.1303914.0001725.0155224.0088391.0280896.0191918.028.0245497-.0001731.1389527.1638363.2441715.3502099.1185048.2098961.111388.2050812.3004271.2032066.1521055-.0008956.1696627-.0063881.2122448-.0587375.0255184-.0313971.0461329-.0834898.0457727-.1157645-.0009081-.0673077.0575511-.1462034.199864-.2704992.054854-.0478987.1215832-.1066571.1482913-.1305646.088152-.0789047.1882914-.1415675.2268233-.1419496.0208567-.0001761.1331982.0380508.2496203.0850122.1720329.0694031.2235782.1013077.2752719.1703706.11239.1501466.352142.2120483.4709858.1216092.0314848-.0239403.0683972-.0436598.0820343-.0437971.0136219-.0001403.0246405-.0150448.0244286-.0331583-.0001846-.0453583-.0930166-.2933679-.1212715-.3251053-.0126532-.0142687-.0337127-.1009137-.0467656-.1926483-.0130467-.0917346-.0447768-.2102484-.0704677-.2633619-.0313728-.0648599-.0514001-.1633647-.0609839-.299971-.0078099-.1118719-.0345058-.275156-.0592372-.3628666-.0247314-.0877048-.0452581-.1865617-.0456304-.2196842-.002119-.1586363-.1382354-.3674637-.2771215-.424031-.0313577-.0127762-.0827063-.0369076-.1141094-.0536449-.0821644-.0437972-.1902196-.0375822-.2382294.0137015-.0223399.0238508-.06201.0436419-.0881702.0439553-.048267.0001791-.1938491.1160003-.1934344.1533587.0001241.011194-.0333404.0207164-.0743636.0211343-.0608022.0008956-.0882701-.0157612-.1485517-.0884032-.040669-.049033-.0741668-.0994749-.0744302-.1120988-.0001907-.0126269-.0415136-.0563972-.0916604-.0972779-.0743364-.0605763-.0913911-.0885793-.0922689-.1514571-.0009081-.0615285.0103829-.0822002.0554079-.1021764.0310611-.0137612.0563736-.0344837.0562465-.046018-.0001272-.0115224.0380082-.027612.0847375-.0357165.0467353-.0080598.1664751-.0355195.2660877-.0609256.2507948-.0639584.7020439-.067624.8118972-.0066269.0406418.0225673.1000546.0465763.1320358.0533315.0743909.0157016.2712066.194908.3115487.2836277.0170425.0374419.0404934.0735345.0521598.0801972.0116846.0067164.0287272.0530957.0378872.1031794.0091721.0500956.0306433.1199466.047704.1552392.0255184.0527792.0596277.2737948.0943999.6116136.0062358.0604658.0521296.2674395.0879886.3967473.0131376.0471584.0387499.1566572.0570486.243332.0182837.0866779.0494567.1741796.0692418.1944453.0197669.0202688.0361526.0539584.0363857.0748779.0009081.08383.2358289.2248931.3722419.2235409.1190284-.0008956.297067-.0803226.4085368-.1816184.0633995-.0576032.139655-.1108123.1694568-.1182451.0612956-.0153434.1608901.0310836.196413.091436.0432148.0734241.1147754.1383526.2098504.1904005.1024672.0560927.1396883.1304332.1007084.2011498-.0129862.0235225-.0410898.0430479-.0625004.0433733-.0214016.0001821-.0933012.0252239-.1597641.0553136-.0664598.0300956-.1398185.0549046-.163009.0551374-.0232179.0001791-.1520541.0353673-.2863481.0780689-.1342971.0427136-.3715759.103657-.52732.1354392-.2754505.0562061-.6448924.1572123-.6903593.1887527-.0123506.0085672-.0633178.0226568-.113171.031224-.1544485.0265672-.1676648.0347613-.1822554.1128809-.0180414.0963794-.2259696.310777-.379749.3914637-.1065659.0559196-.1285456.0592121-.3939159.0589972-.1545787-.0008955-.299513-.0055821-.3220527-.0121194-.0225519-.0065075-.047931-.0402568-.0563827-.0749405-.0084758-.03483-.0461057-.0833256-.0840533-.1083436-.0723506-.0476897-.1550327-.0463106-.340185.0057015l-.0824702.0231643-.0136522.2121766c-.0075374.1166929-.0273044.2351947-.0439413.2633411-.0166187.0281493-.0399909.0706151-.0519026.0943674-.011957.0237612-.0737279.087245-.1373695.141069-.0636447.053827-.1562284.1345347-.2057457.1793527-.1022673.0925764-.1903528.1066033-.2517786.0401106-.0226124-.0244777-.0674437-.0423165-.1054186-.0419434-.0762162.0008955-.2527231-.07063-.3637963-.1471347-.0681732-.0469524-.2109431-.2767082-.2116515-.340598-.0001332-.0122985-.0209172-.0415284-.0461238-.0649195-.0363675-.0337136-.0752778-.0420419-.1877435-.0401852-.0780234.001194-.1877283.0123881-.2437841.0246269-.0560587.012209-.1925838.0329553-.3034057.0460001-.1108189.0129851-.2341912.03703-.274158.0533047-.0399667.0162687-.1160528.0369762-.1690632.0459971-.1393615.0237314-.181768.0741315-.1802212.2142364.0009081.0742092-.0103224.1248451-.0310247.1414959-.017769.0143284-.038317.0531733-.0456516.0864719-.019101.0867047-.2048889.264544-.3372184.3228367-.0621311.0273732-.1505344.0690987-.1964494.0927405-.0688331.0354449-.1288362.043436-.3419407.0455524-.1421494.0008955-.2653309-.0038209-.2737432-.0115821zm-2.0878228.9765211-.0376836-.0427224.0330644-.0764146c.0181823-.0420258.0606654-.0915117.0944004-.1099703.1149526-.0628913.1924525-.1416832.2863868-.2911435.0516138-.0821276.0937078-.1696696.0935473-.1945453-.0001363-.0248793.0198531-.0846413.0444816-.1328114.0429229-.0839557.0446377-.0991634.0414322-.367628-.0033198-.2740818-.0118723-.3316028-.0729466-.4900675-.0291158-.0755116-.1274318-.1949545-.2277947-.2767651-.0665246-.0542295-.0903748-.1645795-.0559318-.2587856.0143787-.0393867.0599904-.1856403.1013214-.324994.0413289-.1393611.0840451-.2833848.0949149-.3200588.0297577-.1003688.1036212-.1058385.1534497-.0113892.0471024.0893039.1232677.314917.1236041.3661058.0001319.0200877.0145106.0577053.0319453.0835245.0376925.0557924.1188816.2895328.1192355.34325.0001341.0207512.0198092.0902069.0437144.1543256.0297006.0796396.0439737.1565444.0450642.2428001.0010993.0694299.0128177.1707533.0264489.225145.0397635.158192.0269766.688107-.0201829.8364984-.0198092.0623642-.0414388.1137668-.0480587.1142201-.0066178.0002175-.0339659.0496739-.0607841.1093732-.0511522.1138589-.2257501.3194396-.2719642.320221-.0148404.0002174-.0378815.0275331-.0512093.0605802-.0227179.0563453-.0375517.0608604-.236523.0720211-.1758972.0099148-.2187365.004681-.2499564-.0308135zm-1.9708703-.1226386c-.0544084-.1315839-.0661833-.1873903-.0667842-.3165016-.0006726-.1304715.0099993-.1822446.0632688-.3087884.0982638-.2334273.1462848-.2390633.3159177-.0371691.1621043.1929526.2169118.2104247.2314174.0738216.0140124-.1319214.1073574-.2526235.1960278-.2534881.056063-.0010545.0877893.0251485.1326872.1073845.0563545.1032458.059074.1193313.0605089.3581679.0008968.2440983-.0004484.2533563-.0651117.3879876-.0621545.1286895-.0721537.1366294-.1491837.1184983-.098015-.023145-.1568357-.128679-.1727963-.3102382-.0115687-.1318107-.0312578-.1632805-.0460122-.0736529-.0046858.0287863-.0288409.0642419-.05357.0788723-.0456288.0270992-.12304.1416223-.178047.2636424-.0207832.0460792-.0572288.0677744-.1162759.069182-.0797316.0015817-.0908295-.0096481-.1520647-.1577183zm-1.7168658-1.507028c.0485238-.0197369.0589257-.0354032.0482894-.0727011-.0074404-.0261474-.0245767-.0960095-.038028-.1552674-.0210617-.0927505-.0319821-.1076526-.0784582-.1071473-.0501876.0001863-.143342.0572558-.2281334.1388905-.0419826.0404179-.0678775.1388242-.0452136.1718368.0499708.07278.1968485.0832611.3415556.024379zm-1.3950461.6293624c.0453919-.0347328.046439-.0443689.0446093-.4097444l-.0019089-.3741685-.0551923-.0487641c-.0528609-.0467047-.0718183-.0494247-.4485199-.0643599-.2163356-.0086245-.4288317-.0268409-.4722167-.0406041-.0568776-.0180229-.1077424-.0195985-.1823066-.0056114-.0673162.0126326-.1475524.0123286-.2298365-.0008293-.3058759-.0486341-.5094387-.0098407-.5832013.1109625-.0347815.0569987-.0348715.0634201-.0016361.1168751.0193337.0311033.058301.0605812.0865899.0655044.0282861.0048927.094217.0217822.1465134.0374942.0579738.0174148.1818158.0283114.3173016.0279465.1222195-.0000884.3281274.0061367.4575732.0144018s.3093937.0168619.3999266.0191286c.1179383.0030406.1810577.0144293.2227765.0404354l.0582111.0362835-.0119711.1924496c-.0114257.1843974-.0098986.1941718.0358205.2337006.0550152.0475312.1208915.0844781.1504811.084409.0112348-.0001106.0413724-.0160326.0669398-.0356146zm-.4153868 1.0159043c-.0001116-.0109442-.0551378-.0467433-.1222831-.0795225-.1298082-.0633823-.2411412-.1594591-.3090267-.266709-.0473717-.0748219-.1029736-.2645201-.1042895-.3558272-.0001792-.0451597-.0141575-.0647652-.0505822-.0732979-.1498079-.0351154-.5302888-.0795633-.8105306-.0946939-.1757819-.0094703-.5050285-.0368308-.7316364-.060748-.4921047-.0519457-.6799704-.0445953-.745647.0291636-.024849.0279092-.0558486.0836524-.0689076.1238731-.0130413.0402176-.0611533.1264383-.1068684.1915923-.0457211.0651571-.0830181.1290568-.0828859.1420079.0001321.0129198-.0096929.0236445-.021765.0237699-.0121307.0001317-.0398759.0182508-.0616878.0401799-.0559544.0563422-.1691849.1396372-.2277593.1675371-.0273163.0130765-.0742709.038568-.1043747.0568-.0790587.0478941-.6301548.0534195-.7188594.0073379-.0348885-.0182194-.0937537-.0327792-.1308128-.0324594-.0370532.000185-.0865369-.0134842-.1099555-.0306374-.0353467-.0259023-.0389624-.0421211-.0212949-.0954152.0254658-.0768257.0990994-.0962524.3837206-.1012886.1581702-.0028223.2044405-.0127944.2967491-.0637679.1105135-.0611025.2992163-.2086326.3139025-.2454289.0043765-.0109129.0263764-.0364671.0488903-.0566464.0224993-.0201637.0468901-.0726174.0541891-.1165509.0073138-.0439304.0323625-.1198091.0556959-.1686283.0490049-.1025054.0430364-.1647022-.0402196-.4192973-.0857467-.2622027-.1161589-.3202665-.2138396-.408259-.1230497-.1108499-.1201125-.1633538.0175059-.3128031.0602545-.0654268.1447177-.1745112.1876953-.2424091.0699386-.1104893.0853561-.122807.1468736-.1173349.0587036.0051742.0779014.0241462.1315677.1296213.0827097.1625572.1962985.4438825.1967391.4872515.000185.0189093.0147155.066261.0322215.1052022.0175059.0389475.0435181.1079712.0577666.1533911.0351117.1119694.0547765.1235753.2371408.1399696.1914609.0172787.1937284.0143937.210594-.2599856.0064326-.1047882.0216768-.2009654.033884-.2137284.0121895-.0127316.0219705-.0432687.0217062-.0677881-.0005875-.0545924-.1103256-.3772139-.1383439-.4066284-.0372589-.0391011-.0221174-.1540559.0333964-.25351.0302447-.0542004.0631036-.0986263.0730197-.0987298.0099279-.0001066.0555931-.0269057.1015109-.0595784.1148196-.0816769.2867977-.1015708.3604871-.0416914.0477448.0388001.0551555.0660477.0660115.2426129.011044.1796039.0178584.2038975.0703762.250324.0319836.0282856.0821545.051491.1114946.0515663.029343.0003136.0713279.0164633.0933219.0364545.0333083.0302611.1108601.0368904.4647297.0397848.4892556.0039825.7627711.0179372.7975186.0405656.0133938.0087491.09865.0153971.1895105.01477.0908605-.0009408.2891064.0065539.4405269.0158675.2651267.0163692.2778039.0194737.3422468.0841479l.0669074.0671547.0048464.3005951c.0057864.3468901.0247315.3913567.1666735.3898201.1246769-.0009407.1598856-.0420144.1696901-.1959982.0046408-.0733198.0212069-.1439521.0367507-.156966.0155967-.0130138.0429395-.0607418.0608743-.1060614.0371472-.0938566.190518-.259117.26179-.2820716.0262589-.0084668.0673714-.0335318.0913804-.0557275.0239972-.0221706.0733223-.0463137.1095971-.0536046.1585345-.0318698.3329652-.0944054.3741747-.1341431.0285793-.0275643.0816317-.044912.1473142-.0481639.0843046-.0041707.1106486.0045157.147417.0488694.0527204.0635202.0622958.112189.0830533.4219628.0085767.1280282.0265526.2599229.0399758.2930879.0134232.0331681.0302858.1923261.0375173.3536635l.0131001.2933826-.0687901.0964343-.0687901.0964249-.7125444.0065853c-.3918861.0036063-.7468219.0135784-.7887656.0220766-.0827449.016871-.1024567.0631878-.1006826.2367488.0008811.0539903-.0140694.0980838-.040813.1234592-.0229104.0217316-.04736.0637617-.0543036.0934458-.0132469.0565398-.1591072.1745991-.25304.2047912-.030186.0096899-.0696331.0301671-.0876472.0454513-.0516161.0438207-.2170178.1275798-.2527052.1279592-.0177703.0001882-.0324535-.0085923-.0325681-.0195992z" fill="#c09300"></path><path id="path140" d="m25.3438658 14.661211c.2351849.0120882-.3181818-1.1015909-.3181818-1.1015909.6225064.556841 2.974316.6900143 2.974316.6900143-1.4109831-.5451299-2.8219662-4.66089592-2.6561539-7.94134863.1523893-3.2924746-.5392846-4.58765923-1.0927816-5.07198892-.7054915-.61733035-2.9743555-1.16208034-4.4682447-1.23469525-.8440632-.0363109-.7054915.55684096-.7054915.55684096-1.5633724-.35105266-3.1263501-.48422605-3.8322364-.07264945-.6640385.38739466-.8023733 2.32419522-.3181818 1.98523353 1.175885-.82315319 2.1996176-.07262873 2.9051091.82315319.622546.78684574.581014 3.01420957-.3181818 5.61677346-.940708 2.73577181-3.5138374 5.47168181-3.5138374 5.47168181 1.3972444 0 3.361685-1.0894654 3.361685-1.0894654l-.470354 1.7068303c1.4801899-.6173649 2.6561144-1.5736569 2.6561144-1.5736569l1.4110621 1.2952191c.4703145-.5447154 1.4110225-1.2952191 1.4110225-1.2952191s1.1759245 1.0894308 2.9743161 1.2347298z" fill="#fff" stroke="#c09300" stroke-width=".5"></path><path id="path142" d="m18.9261959 7.01808615c-.0022212.01494629-.0048844.03259704-.0079885.05285566-.0088718.05790023-.0194952.12507275-.0318623.2007446-.0353394.21623433-.0775572.45719303-.1265887.71669153-.1400835.74139098-.3066478 1.4827664-.4991558 2.17461246-.3708345 1.3327254-.7923899 2.3184849-1.2606006 2.8094591l.0595612.0275505c.4752185-.4983227.8986088-1.4883727 1.2712345-2.8275357.192814-.69294546.3595927-1.43527522.4998507-2.17758943.0490881-.25979831.0913561-.5010438.126741-.71755681.0123864-.07578972.0230282-.14307798.0319174-.20109222.0031122-.02031145.0057833-.0380146.0080123-.05301289.0013387-.00900816.0022334-.01511825.0026829-.01823371l-.0711427-.00497924c-.0004425.00306665-.00133.00912757-.0026614.01808615zm1.0134209.00338314c-.0007661.01773022-.0016971.03866711-.0027966.06269614-.0031422.06867001-.0070042.14833419-.0116165.23807613-.0131791.25643002-.0297235.5421763-.0498758.84990675-.057576.8791991-.1324966 1.75838426-.2266953 2.57886439-.1708834 1.48841-.3857946 2.6141859-.6486326 3.2281515l.0552235.0208358c.2655433-.6202851.4811213-1.7495536.6525829-3.2429998.0943077-.8214296.169298-1.70143343.2269258-2.5814233.020169-.30798569.0367275-.59397583.0499189-.8506426.0046174-.08984193.0084842-.16960425.0116308-.23837088.0011016-.02407379.0020345-.04505507.0028025-.06282933.0004612-.01067232.0007647-.01789864.0009156-.02159418l-.0594728-.00213991c-.0001484.00363441-.000451.01083894-.0009104.02146929zm1.0604583.0587527c.0000939.06537773.0002629.14121337.0005259.2266355.0007511.2440544.0021031.51599712.0042062.8088572.0060091.83675477.0168254 1.67351474.0336516 2.45452531.0385941 1.7914046.1024687 3.0175107.1979259 3.42976l.0493296-.0146041c-.0939598-.4057826-.1578255-1.6317177-.1962783-3.4165601-.0168187-.78066222-.0276311-1.61712316-.0336381-2.45358929-.0021025-.29276723-.003454-.56462131-.0042049-.80858967-.0002628-.08538583-.0004317-.16118584-.0005256-.22652849-.0000328-.02286795-.0000539-.04279475-.0000657-.05967148-.0000093-.01698208-.0510017-.02045687-.0510017-.02045687.0000211.03739489.0000423.0573378.0000751.08022199zm1.0015864-.05914545c.0013998.01552654.0031125.03385286.0051493.054879.0058173.06005409.0130645.12970763.0218305.20816098.0250421.22412013.0572285.4738408.097272.74276582.1144158.76839599.2688177 1.53680994.468936 2.25411516.3390614 1.2153337.7739475 2.1566878 1.3183288 2.7190025l.0868219-.0226828c-.5383521-.5560868-.9713275-1.4933051-1.3089722-2.7035608-.1997727-.71606659-.3539591-1.48340809-.4682206-2.25076756-.0399936-.26858939-.0721386-.51798924-.0971459-.74179778-.0087513-.07832169-.015985-.14784599-.02179-.20777279-.0020311-.02096718-.0037383-.03923503-.0051329-.05470355-.0008358-.00927087-.0013811-.01554245-.0016472-.01871472l-.0970912.00219725c.0002706.0032267.0008207.00955312.0016615.01887929zm-7.9739016-5.65903478c.096796-.33636866.2489508-.64348061.4425941-.77511492.7053953-.49723881 2.2683092-.33636866 3.8312626.08774508 0 0-.1383043-.71660151.7053953-.67273732 1.4937598.08774508 3.762148.74585822 4.4673855 1.49171644.1659658.19013103.3596328.46802384.5256026.89210001h-.0276612c-.3457705-.51180456-1.3278216-.48254785-1.5630718-.45333288-.3734439.04385167-.6085718.02924752-1.1064654.16084094-.2351397.05853428-.5947567.13163431-.7884039.29251699-.1521548.13163431-.2766085.6142239-.5117481.6142239-.3734439 0-.3457823-.10238595-.4426335-.21937939-.1244537-.16088268-.1936275-.39486538-.3181207-.38026207-.387255.07313759-1.0096812-.24858602-1.7980457-.9067075-.788246-.65812984-1.0925713-.81897912-2.1160676-.74585822-1.0096812.08774508-1.3277821.6873448-1.3277821.6873448l.0276612-.07310003zm3.4169772 2.63795824c-.072651-.45095418-.2034768-.80438595-.39244-1.03594949-.7412769-.90183879-1.8168356-1.65742876-3.0522971-.82873177 0 0 .4215128-1.09684882 1.322651-1.13340234.6976822-.03657785 2.2819847.43874649 3.677349 2.43743411 0 0-1.031964-.19501699-1.2790563-.01220317-.4651076.34125886-.2761651.5728224-.2761651.5728224zm2.0552867-2c.2832913 0 .4999762-.21667539.4999762-.50002378 0-.28333888-.2166754-.49997622-.4999762-.49997622-.2666921 0-.5000238.21662782-.5000238.49997622 0 .28333888.2333175.50002378.5000238.50002378z" fill="#c09300"></path></g></g><ellipse id="Oval-3" cx="90.5" cy="51.5" fill="#fff" fill-opacity=".25" rx="63.5" ry="45.5"></ellipse></g></svg>