<svg xmlns="http://www.w3.org/2000/svg" id="Layer_1" height="64" viewBox="0 0 64 64" width="64"><g><g><g><g><path d="m63 47.2c0 3.4-2.7 5.8-6 5.8h-50c-3.3 0-6-2.4-6-5.8v-30.4c0-3.4 2.7-5.8 6-5.8h50c3.3 0 6 2.4 6 5.8z" fill="#2b479d"></path><path d="m7 11h50c3.3 0 6 2.4 6 5.8v30.4c0 3.4-3.2 5.8-6.5 5.8" fill="#183887"></path><g fill="#0b2f77"><path d="m7 11h50c3.3 0 6 2.4 6 5.8v11.2"></path><path d="m63 47.1c0 3.7-2.7 5.9-6 5.9h-50c-3.3 0-6-2.6-6-6"></path></g></g></g></g><g fill="#f8d12e"><path d="m31.9 16.6.5 1.4h1.5l-1.2.8.4 1.5-1.2-1-1.2.9.4-1.4-1.2-.8h1.5z"></path><path d="m31.9 43.6.5 1.4h1.5l-1.2 1 .4 1.5-1.2-.9-1.2.9.4-1.5-1.2-1h1.5z"></path><path d="m39.4 18.6.5 1.4h1.5l-1.2 1.1.4 1.5-1.2-.9-1.2.9.4-1.6-1.2-1h1.5z"></path><path d="m44.5 23.6.5 1.4h1.5l-1.2 1.1.4 1.5-1.2-.8-1.2.9.5-1.6-1.3-1.1h1.5z"></path><path d="m44.6 36.6.5 1.4h1.5l-1.2 1 .5 1.4-1.3-.9-1.2 1 .5-1.6-1.3-.9h1.6z"></path><path d="m19.5 23.6.4 1.4h1.6l-1.3 1.1.5 1.5-1.2-.8-1.3.9.5-1.6-1.2-1.1h1.5z"></path><path d="m45.7 29.6.5 1.4h1.5l-1.2 1.1.4 1.6-1.2-.9-1.2 1 .4-1.7-1.2-1.1h1.5z"></path><path d="m18.3 29.6.5 1.4h1.5l-1.2 1.1.4 1.6-1.2-.9-1.2 1 .4-1.7-1.2-1.1h1.5z"></path><path d="m19.3 36.6.5 1.4h1.5l-1.2 1 .4 1.4-1.2-.9-1.2 1 .4-1.6-1.2-.9h1.5z"></path><path d="m39.6 41.6.5 1.4h1.5l-1.2 1.1.5 1.5-1.3-.8-1.2.9.5-1.6-1.3-1.1h1.5z"></path><path d="m24.6 18.6.5 1.4h1.5l-1.2 1.1.5 1.5-1.3-.9-1.2.9.5-1.6-1.3-1h1.6z"></path><path d="m24.1 41.6.5 1.4h1.5l-1.3 1 .5 1.6-1.2-.9-1.2.9.4-1.6-1.2-1h1.5z"></path></g></g></svg>