<svg xmlns="http://www.w3.org/2000/svg" xmlns:svg="http://www.w3.org/2000/svg" id="svg5" height="512" viewBox="0 0 8.4666662 8.4666662" width="512"><linearGradient id="linearGradient2739"><stop id="stop2737" offset="0" stop-color="#0ecc24"></stop></linearGradient><linearGradient id="linearGradient2667"><stop id="stop2665" offset="0"></stop></linearGradient><g id="layer1"><path id="path43233" d="m1.4851805 2.1166666a.69126366.69126366 0 0 0 -.69143055.6914306v2.8504718a.69126366.69126366 0 0 0 .69143055.6914307h5.4963051a.69126366.69126366 0 0 0 .6914306-.6914307v-2.8504718a.69126366.69126366 0 0 0 -.6914306-.6914306z" fill="#338000"></path><path id="path43235" d="m.79374995 3.5277777v1.4111112h6.87916625v-1.4111112z" fill="#fff"></path><path id="path43237" d="m.79374995 4.9387164v.7198526a.69126366.69126366 0 0 0 .69143055.6914307h5.4963051a.69126366.69126366 0 0 0 .6914306-.6914307v-.7198526z"></path><path id="path43239" d="m1.4851805 2.1166666a.69126366.69126366 0 0 0 -.69143055.6914306v2.8504718a.69126366.69126366 0 0 0 .69143055.6914307h1.1606526v-4.2333331z" fill="#f00"></path></g></svg>